<svg width="90" height="85" viewBox="0 0 90 85" fill="none" xmlns="http://www.w3.org/2000/svg">
<path d="M64.1863 38.9193C63.9825 35.8628 63.1675 32.8063 61.5373 30.1574L47.6813 5.90922C46.6624 4.07532 45.8474 2.03766 45.4398 0L44.8285 1.01883C41.3645 6.92805 41.3645 14.4674 44.8285 20.3766L56.0357 39.7344C59.4997 45.6436 59.4997 53.1829 56.0357 59.0922L55.4244 60.111C55.0168 58.0733 54.2018 56.0357 53.1829 54.2018L42.9946 36.4741L36.4741 25.0632C35.4553 23.2293 34.6402 21.1917 34.2327 19.154L33.6214 20.1728C30.1574 26.0821 30.1574 33.4176 33.6214 39.5306L44.8285 58.8884C48.2925 64.7976 48.2925 72.3369 44.8285 78.2462L44.2172 79.265C43.8097 77.2273 42.9946 75.1897 41.9758 73.3558L27.9159 49.1076C26.0821 45.8474 25.267 42.1796 25.267 38.5118C10.3921 42.3833 0 50.7378 0 60.3148C0 73.7633 19.9691 84.5629 44.6248 84.5629C69.2804 84.5629 89.2495 73.7633 89.2495 60.3148C89.4533 51.1453 79.265 42.7909 64.1863 38.9193Z" fill="#EA1D25"/>
</svg>
