<svg width="40" height="40" viewBox="0 0 40 40" fill="none" xmlns="http://www.w3.org/2000/svg">
<rect width="40" height="40" rx="16" fill="#2D6FF8" fill-opacity="0.082"/>
<path d="M22.6673 26V24.6667C22.6673 23.9594 22.3864 23.2811 21.8863 22.781C21.3862 22.281 20.7079 22 20.0007 22H16.0007C15.2934 22 14.6151 22.281 14.115 22.781C13.6149 23.2811 13.334 23.9594 13.334 24.6667V26" stroke="#64748B" stroke-width="1.66667" stroke-linecap="round" stroke-linejoin="round"/>
<path d="M22.666 14.0853C23.2379 14.2336 23.7443 14.5675 24.1058 15.0347C24.4673 15.5019 24.6635 16.0759 24.6635 16.6667C24.6635 17.2574 24.4673 17.8314 24.1058 18.2986C23.7443 18.7658 23.2379 19.0997 22.666 19.248" stroke="#64748B" stroke-width="1.66667" stroke-linecap="round" stroke-linejoin="round"/>
<path d="M26.666 26V24.6667C26.6656 24.0758 26.4689 23.5019 26.1069 23.0349C25.7449 22.5679 25.2381 22.2344 24.666 22.0867" stroke="#64748B" stroke-width="1.66667" stroke-linecap="round" stroke-linejoin="round"/>
<path d="M18.0007 19.3333C19.4734 19.3333 20.6673 18.1394 20.6673 16.6667C20.6673 15.1939 19.4734 14 18.0007 14C16.5279 14 15.334 15.1939 15.334 16.6667C15.334 18.1394 16.5279 19.3333 18.0007 19.3333Z" stroke="#64748B" stroke-width="1.66667" stroke-linecap="round" stroke-linejoin="round"/>
</svg>
