<svg width="90" height="58" viewBox="0 0 90 58" fill="none" xmlns="http://www.w3.org/2000/svg">
<g clip-path="url(#clip0_23040_3629)">
<path d="M27.4559 46.3973L27.294 46.5542C24.7506 49.1456 21.8074 50.5147 18.7757 50.5147C12.4439 50.5147 7.8507 45.7646 7.8507 39.2127C7.8507 32.6708 12.4439 27.9131 18.7757 27.9131C21.8074 27.9131 24.7506 29.2898 27.294 31.8914L27.4559 32.0458L31.5278 27.121L31.419 26.9894C28.0329 22.9884 23.9687 21.0423 18.9731 21.0423C13.9648 21.0423 9.37924 22.7303 6.07922 25.7697C2.48564 29.0646 0.595215 33.711 0.595215 39.2127C0.595215 44.7144 2.48564 49.3709 6.07922 52.6658C9.37924 55.7229 13.9648 57.3982 18.9731 57.3982C23.9687 57.3982 28.0329 55.4496 31.419 51.446L31.5278 51.3245L27.4559 46.3973Z" fill="#004685"/>
<path d="M35.6404 56.7268H42.8325V21.611H35.6404V56.7268Z" fill="#004685"/>
<path d="M71.0105 49.0928C69.0897 50.262 67.3056 50.8516 65.7011 50.8516C63.3754 50.8516 62.3227 49.6217 62.3227 46.8886V28.2551H69.6541V21.6449H62.3227V10.7174L55.2747 14.4932V21.6449H49.1909V28.2551H55.2747V48.0755C55.2747 53.4734 58.4735 57.1682 63.2514 57.2644C66.4932 57.3276 68.4469 56.3609 69.6313 55.6523L69.7072 55.6042L71.4357 48.8321L71.0105 49.0928Z" fill="#004685"/>
<path d="M76.9641 56.7268H84.1665V21.611H76.9641V56.7268Z" fill="#004685"/>
<path d="M88.3613 15.4555C81.7891 6.14767 70.8768 0.595335 59.7747 0.595335C48.6751 0.595335 37.7602 6.14767 31.2007 15.4555L30.8616 15.9338H39.1369L39.228 15.8351C44.8588 10.0196 52.213 6.94736 59.7747 6.94736C67.3364 6.94736 74.6855 10.0196 80.3289 15.8351L80.42 15.9338H88.6903L88.3613 15.4555Z" fill="#EE1C25"/>
</g>
<defs>
<clipPath id="clip0_23040_3629">
<rect width="89.2857" height="57.9935" fill="white"/>
</clipPath>
</defs>
</svg>
