<svg width="90" height="36" viewBox="0 0 90 36" fill="none" xmlns="http://www.w3.org/2000/svg">
<path d="M0 33.323H17.3601V35.8081H0V33.323Z" fill="#1F70C1"/>
<path d="M0 28.5562H17.3601V31.05H0V28.5562Z" fill="#1F70C1"/>
<path d="M4.95264 23.7983H12.399V26.2923H4.95264V23.7983Z" fill="#1F70C1"/>
<path d="M4.95264 19.0405H12.399V21.5345H4.95264V19.0405Z" fill="#1F70C1"/>
<path d="M4.95264 14.2825H12.399V16.7764H4.95264V14.2825Z" fill="#1F70C1"/>
<path d="M4.95264 9.51587H12.399V12.0098H4.95264V9.51587Z" fill="#1F70C1"/>
<path d="M17.3601 4.75781H0V7.25174H17.3601V4.75781Z" fill="#1F70C1"/>
<path d="M17.3601 0H0V2.49393H17.3601V0Z" fill="#1F70C1"/>
<path d="M19.8364 31.0501H46.5355C46.9864 30.2807 47.3225 29.4405 47.526 28.5562H19.8364V31.0501Z" fill="#1F70C1"/>
<path d="M44.4572 19.0405H24.7977V21.5345H46.5355C45.9694 20.5793 45.2708 19.7392 44.4572 19.0405Z" fill="#1F70C1"/>
<path d="M24.7977 14.2825V16.7764H44.4572C45.2885 16.0777 45.9871 15.2376 46.5355 14.2825H24.7977Z" fill="#1F70C1"/>
<path d="M46.5355 4.75781H19.8364V7.25174H47.526C47.2961 6.36737 46.96 5.52728 46.5355 4.75781Z" fill="#1F70C1"/>
<path d="M38.3286 0H19.8364V2.49393H44.7048C43.0422 0.95509 40.7872 0 38.3286 0Z" fill="#1F70C1"/>
<path d="M32.2352 9.51587H24.7977V12.0098H32.2352V9.51587Z" fill="#1F70C1"/>
<path d="M39.6816 12.0098H47.4641C47.6851 11.2139 47.8001 10.3737 47.8001 9.51587H39.6816V12.0098Z" fill="#1F70C1"/>
<path d="M24.7977 23.7983H32.2352V26.2923H24.7977V23.7983Z" fill="#1F70C1"/>
<path d="M39.6816 23.7983V26.2923H47.8001C47.8001 25.4344 47.6851 24.5943 47.4641 23.7983H39.6816Z" fill="#1F70C1"/>
<path d="M19.8364 35.7904L38.3286 35.8169C40.8048 35.8169 43.0422 34.8618 44.7137 33.323H19.8364V35.7904Z" fill="#1F70C1"/>
<path d="M49.6042 33.323H62.003V35.8081H49.6042V33.323Z" fill="#1F70C1"/>
<path d="M49.6042 28.5562H62.003V31.05H49.6042V28.5562Z" fill="#1F70C1"/>
<path d="M54.5566 23.7983H62.003V26.2923H54.5566V23.7983Z" fill="#1F70C1"/>
<path d="M54.5566 19.0405H62.003V21.5345H54.5566V19.0405Z" fill="#1F70C1"/>
<path d="M65.4521 4.75781H49.6042V7.25174H66.3099L65.4521 4.75781Z" fill="#1F70C1"/>
<path d="M63.8071 0H49.6042V2.49393H64.665L63.8071 0Z" fill="#1F70C1"/>
<path d="M76.8781 33.323H89.2857V35.8081H76.8781V33.323Z" fill="#1F70C1"/>
<path d="M76.8781 28.5562H89.2857V31.05H76.8781V28.5562Z" fill="#1F70C1"/>
<path d="M76.8781 23.7983H84.3244V26.2923H76.8781V23.7983Z" fill="#1F70C1"/>
<path d="M76.8781 19.0405H84.3244V21.5345H76.8781V19.0405Z" fill="#1F70C1"/>
<path d="M76.8781 16.7764H84.3244V14.2825H76.8781H70.1392L69.4406 16.2989L68.7419 14.2825H62.003H54.5566V16.7764H62.003V14.4859L62.7901 16.7764H76.091L76.8781 14.4859V16.7764Z" fill="#1F70C1"/>
<path d="M84.3244 9.51587H71.7841L70.9263 12.0098H84.3244V9.51587Z" fill="#1F70C1"/>
<path d="M75.0827 0L74.2249 2.49393H89.2857V0H75.0827Z" fill="#1F70C1"/>
<path d="M69.4405 35.7904L70.2983 33.323H68.5826L69.4405 35.7904Z" fill="#1F70C1"/>
<path d="M67.7956 31.05H71.0854L71.9698 28.5562H66.92L67.7956 31.05Z" fill="#1F70C1"/>
<path d="M66.1241 26.2923H72.7568L73.6324 23.7983H65.2485L66.1241 26.2923Z" fill="#1F70C1"/>
<path d="M64.4616 21.5345H74.4284L75.2774 19.0405H63.6038L64.4616 21.5345Z" fill="#1F70C1"/>
<path d="M54.5566 12.0098H67.9548L67.097 9.51587H54.5566V12.0098Z" fill="#1F70C1"/>
<path d="M72.58 7.25174H89.2857V4.75781H73.429L72.58 7.25174Z" fill="#1F70C1"/>
</svg>
