<svg width="32" height="32" viewBox="0 0 32 32" fill="none" xmlns="http://www.w3.org/2000/svg">
<path d="M21.3307 27.9969V25.3306C21.3307 23.9162 20.7688 22.5598 19.7687 21.5597C18.7686 20.5596 17.4122 19.9978 15.9979 19.9978H7.99877C6.58444 19.9978 5.22803 20.5596 4.22794 21.5597C3.22786 22.5598 2.66602 23.9162 2.66602 25.3306V27.9969" stroke="white" stroke-width="2.66638" stroke-linecap="round" stroke-linejoin="round"/>
<path d="M21.3301 4.17017C22.4736 4.46663 23.4864 5.13441 24.2093 6.06871C24.9323 7.00301 25.3246 8.15092 25.3246 9.33227C25.3246 10.5136 24.9323 11.6615 24.2093 12.5958C23.4864 13.5301 22.4736 14.1979 21.3301 14.4944" stroke="white" stroke-width="2.66638" stroke-linecap="round" stroke-linejoin="round"/>
<path d="M29.3296 27.997V25.3306C29.3288 24.149 28.9355 23.0012 28.2116 22.0674C27.4877 21.1335 26.4741 20.4665 25.3301 20.1711" stroke="white" stroke-width="2.66638" stroke-linecap="round" stroke-linejoin="round"/>
<path d="M11.9988 14.665C14.944 14.665 17.3315 12.2775 17.3315 9.33227C17.3315 6.38707 14.944 3.99951 11.9988 3.99951C9.05357 3.99951 6.66602 6.38707 6.66602 9.33227C6.66602 12.2775 9.05357 14.665 11.9988 14.665Z" stroke="white" stroke-width="2.66638" stroke-linecap="round" stroke-linejoin="round"/>
</svg>
