<svg width="90" height="19" viewBox="0 0 90 19" fill="none" xmlns="http://www.w3.org/2000/svg">
<g clip-path="url(#clip0_23040_1975)">
<path d="M88.1787 11.8914C88.4018 12.1768 88.7303 12.2709 89.2853 12.3094V12.8882H84.9142V12.3139C85.2336 12.2878 85.4828 12.2199 85.6425 12.11C85.8566 11.9639 85.9201 11.7396 85.9744 11.4621C86.0118 11.2186 86.0277 10.8629 86.0277 10.3577V7.34354C86.0277 6.61181 85.9767 5.69091 85.7264 5.19478C85.5089 4.75302 85.1351 4.53667 84.4464 4.53667C83.6773 4.53667 82.992 4.90141 82.6148 5.56518C82.2738 6.17232 82.2761 7.15325 82.2761 8.17269V10.608C82.2761 11.2344 82.3565 11.6637 82.5344 11.9129C82.6952 12.1463 83.0044 12.2709 83.4632 12.3037V12.8882H78.9255V12.3094C79.2778 12.2935 79.5417 12.2527 79.7139 12.1768C79.988 12.0624 80.1693 11.8699 80.244 11.5878C80.3142 11.3534 80.3562 10.9977 80.3562 10.5061V4.15042L78.9255 4.14702V3.67015L81.7868 3.66562L82.1107 5.33864L82.2546 5.33524C82.6193 4.61823 83.4202 3.55688 85.2631 3.55688C85.7773 3.55688 86.2451 3.65656 86.6484 3.86158C87.0494 4.0666 87.3699 4.37809 87.6021 4.79267C87.8287 5.21517 87.9012 5.73282 87.9012 6.33429V10.514C87.9012 10.9852 87.9521 11.6014 88.1787 11.8914Z" fill="#4D2B1A"/>
<path d="M77.4502 11.9487C76.8906 11.9487 76.7094 11.6361 76.672 11.1116L76.6369 9.93812V6.07216C76.6369 5.24075 76.4998 4.68232 76.0116 4.18959C75.5302 3.70026 74.5923 3.44653 73.2421 3.44653C71.9395 3.44653 70.9744 3.6878 70.3628 4.15901C69.7602 4.61322 69.5325 5.03686 69.5325 5.63833C69.5325 5.91924 69.6039 6.1186 69.7602 6.25C69.9221 6.38932 70.1056 6.45389 70.3345 6.45389C70.8555 6.45389 71.1443 6.1911 71.2531 5.5058C71.3369 4.99268 71.4468 4.70384 71.7028 4.43879C71.9656 4.15901 72.3847 4.01855 72.951 4.01855C73.6103 4.01855 74.0769 4.19412 74.3352 4.54979C74.5787 4.88281 74.7011 5.33476 74.7011 5.89432V7.43935C73.0213 7.59226 69.05 7.90943 69.2267 10.936C69.298 12.1186 70.3379 13.155 71.6846 13.155C73.1764 13.155 74.1166 12.3089 74.76 11.6327C74.8619 12.2704 75.4577 13.0429 76.5451 13.0429C77.7696 13.0429 78.5002 12.4448 78.5818 10.9462H78.2657C78.1853 11.5953 77.7855 11.9487 77.4502 11.9487ZM74.7011 10.9723C74.7011 11.0063 74.6977 11.0267 74.6682 11.0482L74.6342 11.0822C73.7326 11.8966 73.0439 12.1888 72.5432 12.1888C71.2531 12.1888 71.0628 11.1139 71.0628 10.5826C71.0628 8.86204 73.4143 8.00797 74.7011 8.00797V10.9723Z" fill="#4D2B1A"/>
<path d="M67.6748 3.07572C67.4029 3.1618 67.2262 3.40534 67.1243 3.80972C67.0586 4.18465 66.9124 4.40213 66.7255 4.46216C66.5364 4.51766 66.2136 4.5222 66.0731 4.41459C65.6008 3.97849 64.6991 3.44725 63.111 3.44725C60.5545 3.44725 59.4275 5.26979 59.4275 6.92808C59.4275 8.87295 60.1762 9.81764 61.8197 10.1642C61.9217 10.1812 61.9217 10.2956 61.8322 10.316C60.4333 10.5958 59.1885 11.007 59.1885 12.3402C59.1885 13.1422 59.6495 13.5805 60.2396 13.8229C60.8943 14.0891 61.8016 14.2262 62.957 14.25C63.9606 14.259 64.6708 14.2941 65.1397 14.3474C65.6381 14.4051 66.0323 14.5501 66.3291 14.7642C66.6349 14.993 66.7935 15.3385 66.7935 15.7927C66.7935 16.4089 66.4593 16.9016 65.8046 17.2698C65.1918 17.6085 64.357 17.792 63.3138 17.792C62.4269 17.792 61.6974 17.6968 61.0359 17.2845C60.5477 16.9787 60.4526 16.3897 60.5545 15.9592C60.6497 15.5265 60.4945 15.0712 59.9893 14.9851C59.7129 14.9398 59.3674 15.0859 59.2032 15.3385C59.0537 15.5718 59.0027 15.8493 59.0027 16.1812C59.0027 17.2766 59.85 17.792 60.4956 17.98C61.4811 18.279 62.1369 18.3572 63.0453 18.3572C64.2438 18.3572 65.2258 18.1691 65.9213 17.8157C66.6213 17.4646 67.1118 17.0296 67.3701 16.5335C67.6442 16.034 67.7756 15.5231 67.7756 15.0338C67.7756 14.37 67.6272 13.832 67.3485 13.431C66.4356 12.1771 65.1397 12.3402 62.2253 12.2043C60.8196 12.2043 60.5477 11.9494 60.5477 11.519C60.5477 10.8813 61.071 10.6343 63.0975 10.3228C65.0978 10.0136 66.96 9.27847 66.96 6.83973C66.96 6.13858 66.7958 5.53484 66.5998 5.11234C67.0144 5.20296 67.3916 5.20296 67.7472 5.08969C68.1516 4.96282 68.4133 4.76233 68.5639 4.47802C68.7169 4.19371 68.7746 3.86862 68.7078 3.60017C68.5855 3.03834 68.1652 2.9228 67.6748 3.07572ZM63.1597 9.79272C61.967 9.79272 61.2817 9.36002 61.2817 6.92808C61.2817 5.21655 61.8786 3.94338 63.1597 3.94338C64.647 3.94338 65.0842 5.10215 65.0842 6.89297C65.0842 9.45517 64.2743 9.79272 63.1597 9.79272Z" fill="#4D2B1A"/>
<path d="M56.5425 3.58859C54.9227 3.58859 54.3654 4.54347 53.9214 5.51874C53.9214 5.51874 53.8036 5.50628 53.7946 5.51421C53.781 5.51874 53.4695 3.66562 53.4695 3.66562H50.3987V4.15268H52.0887V6.11228V10.5004C52.0887 11.1268 52.0581 11.6218 51.8939 11.8835C51.7058 12.1893 51.3196 12.3094 50.6751 12.3094H50.3987V12.8882H55.6511V12.3094H55.3656C54.6781 12.3094 54.3235 12.1576 54.14 11.8608C53.9735 11.5958 53.901 11.1495 53.901 10.5004V7.21328C53.901 6.09869 54.7925 4.83005 55.7995 4.83005C56.8518 4.83005 56.8857 6.34109 58.0162 5.79739C58.8216 5.41113 58.6426 3.58859 56.5425 3.58859Z" fill="#4D2B1A"/>
<path d="M45.1067 3.44711C42.3983 3.44711 40.7015 5.24133 40.7015 8.37782C40.7015 12.9597 44.2775 13.27 45.0444 13.27C46.5713 13.27 49.4654 12.3151 49.4654 8.28834C49.4654 5.15298 47.6134 3.44711 45.1067 3.44711ZM45.0716 12.6991C43.0361 12.6991 42.7223 11.6831 42.7223 8.42653C42.7223 5.90964 42.8786 4.01914 45.0716 4.01914C47.4389 4.01914 47.4469 5.97307 47.4469 8.26908C47.4469 11.563 46.885 12.6991 45.0716 12.6991Z" fill="#4D2B1A"/>
<path d="M38.2866 11.5221C38.2141 11.2888 38.1779 11.0067 38.1779 10.6443V0.45437H39.5236V0.000150681H36.2444C36.1979 0.119086 32.2866 9.84911 32.2866 9.84911C32.2685 9.88536 32.2334 9.90688 32.1983 9.90688C32.1541 9.90688 32.1213 9.88536 32.1031 9.84911C32.1031 9.84911 27.9438 0.119086 27.8951 0.000150681H24.2489V0.455502H25.7599V10.2478L25.7248 11.1597C25.701 11.3998 25.6251 11.6127 25.5085 11.7849C25.3839 11.9696 25.1857 12.1111 24.924 12.204C24.7496 12.2573 24.4924 12.298 24.1719 12.3026V12.8882H27.8793V12.3094C27.57 12.298 27.4398 12.2652 27.2563 12.204C26.9901 12.1168 26.7896 11.9843 26.6582 11.7906C26.5393 11.6218 26.4634 11.4055 26.4373 11.1597C26.4373 11.1597 26.3954 10.2524 26.3954 10.2478V1.80343H26.6095C26.6095 1.80343 31.3068 12.7681 31.3556 12.8882H31.7497L36.1934 1.9269H36.3089V10.6443C36.3089 11.026 36.267 11.3171 36.1934 11.5448C36.105 11.811 35.9147 12.0126 35.6406 12.1508C35.4367 12.2403 35.1252 12.2946 34.7163 12.3094V12.8882H39.7864V12.3094C39.382 12.2878 39.0671 12.2335 38.8553 12.1383C38.5608 11.9922 38.3682 11.7894 38.2866 11.5221Z" fill="#4D2B1A"/>
<path d="M9.4583 11.1704C9.16493 11.1704 8.91913 11.2655 8.72204 11.4694C8.51588 11.6711 8.41394 11.9123 8.41394 12.2091C8.41394 12.5002 8.51588 12.7369 8.72204 12.9318C8.92819 13.1379 9.17399 13.2319 9.4583 13.2319C9.75168 13.2319 9.99634 13.1379 10.207 12.9318C10.4075 12.7369 10.5083 12.5002 10.5083 12.2091C10.5083 11.9123 10.4075 11.6699 10.207 11.4694C10.0009 11.2655 9.76074 11.1704 9.4583 11.1704Z" fill="#4D2B1A"/>
<path d="M20.8337 11.1704C20.5414 11.1704 20.2956 11.2655 20.0951 11.4694C19.8912 11.6711 19.7938 11.9123 19.7938 12.2091C19.7938 12.5002 19.8912 12.7369 20.0951 12.9318C20.3069 13.1379 20.5459 13.2319 20.8337 13.2319C21.1259 13.2319 21.3751 13.1379 21.5835 12.9318C21.7897 12.7369 21.8871 12.5002 21.8871 12.2091C21.8871 11.9123 21.7897 11.6699 21.5835 11.4694C21.3774 11.2655 21.1282 11.1704 20.8337 11.1704Z" fill="#4D2B1A"/>
<path d="M17.5349 0.000150681H12.3368V0.453237H13.8626V10.5004C13.8626 11.2888 13.8173 11.3228 13.7301 11.555C13.6327 11.811 13.4209 12.0115 13.1037 12.1417C12.8692 12.2414 12.5135 12.2946 12.0389 12.3094V12.8882H17.6323V12.3094C17.1577 12.2946 16.7963 12.2414 16.5585 12.1576C16.2255 12.0239 16.0091 11.8336 15.9049 11.5686C15.812 11.3454 15.761 11.1449 15.761 10.7474V7.47607L17.1475 7.46814C21.1664 7.46814 22.2957 5.88461 22.2957 3.72112C22.2957 1.53271 21.6047 0.000150681 17.5349 0.000150681ZM16.8258 6.97768H15.761V0.509872L16.725 0.497413C19.8241 0.497413 20.5037 1.77172 20.5037 3.84006C20.5037 5.91745 19.2827 6.97768 16.8258 6.97768Z" fill="#4D2B1A"/>
<path d="M9.10137 0.000520706H3.79346V0.453607H5.48461V9.2616C5.48461 11.9054 4.75174 12.6507 3.1161 12.6507C2.08533 12.6507 1.91769 11.8702 1.91769 11.4625C1.91769 10.5019 1.86218 9.91065 0.984329 9.91065C0.10421 9.91065 0 10.801 0 11.0762C0 12.2882 0.937888 13.217 3.34944 13.217C6.21861 13.217 7.35585 12.2463 7.35585 9.02486V0.449076L9.10137 0.453607V0.000520706Z" fill="#4D2B1A"/>
</g>
<defs>
<clipPath id="clip0_23040_1975">
<rect width="89.2857" height="18.3568" fill="white"/>
</clipPath>
</defs>
</svg>
