<svg width="125" height="125" viewBox="0 0 125 125" fill="none" xmlns="http://www.w3.org/2000/svg">
<rect x="0.5" y="0.5" width="124" height="124" rx="23.5" fill="white"/>
<rect x="0.5" y="0.5" width="124" height="124" rx="23.5" stroke="#C2D8FC"/>
<path d="M91.0425 56.5364V65.5142C91.0425 65.9578 91.2744 66.217 91.5135 66.3801C91.7698 66.5522 92.1459 66.6384 92.6528 66.6384C92.9734 66.6384 93.3971 66.532 93.3971 66.532C93.3971 66.532 93.3971 65.7269 93.3971 65.7269C93.27 65.7348 93.1574 65.7421 93.0326 65.7421C92.278 65.7421 92.1667 65.4473 92.1667 65.1193C92.1667 65.1193 92.1667 56.5364 92.1667 56.5364L91.0425 56.5364ZM67.299 56.6275C66.4518 56.6275 65.6858 56.8933 65.1419 57.3719C64.6138 57.8387 64.3216 58.4831 64.3216 59.1796C64.3216 59.9467 64.6321 60.5461 65.2786 61.0177C65.8489 61.4341 66.6032 61.703 67.3294 61.9596C68.5919 62.4086 69.7752 62.8185 69.7752 63.9648C69.7752 64.4746 69.6018 64.9116 69.2739 65.2104C68.9134 65.539 68.3947 65.6965 67.7092 65.6965C66.5077 65.6965 65.633 65.0313 65.1419 63.7369C65.1419 63.7369 64.0634 64.0255 64.0634 64.0255C64.2957 64.5505 64.6908 65.308 65.2635 65.8181C65.8913 66.3814 66.6707 66.6536 67.6484 66.6536C68.8063 66.6536 69.6852 66.3549 70.2613 65.7573C70.8585 65.1352 70.9905 64.339 70.9905 63.7825C70.9905 62.9849 70.6533 62.3691 69.9727 61.8836C69.3784 61.4573 68.6094 61.1826 67.8611 60.9266C66.6418 60.5096 65.4784 60.1128 65.4913 59.0885C65.4956 58.6108 65.6613 58.239 65.9622 57.9795C66.269 57.7159 66.7061 57.5846 67.2687 57.5846C67.8595 57.5846 68.3864 57.7497 68.7878 58.0707C69.1568 58.363 69.4254 58.7968 69.5473 59.2859C69.5473 59.2859 70.5955 59.1492 70.5955 59.1492C70.1356 57.5815 69.0117 56.6275 67.299 56.6275ZM19.25 56.7642V66.5168H20.3741V57.5997L20.4045 57.6301L23.0781 66.5168H23.944L26.6328 57.6301L26.648 57.5997V66.5168H27.7721V56.7642H25.9036L23.5187 64.6028V64.6332L23.5035 64.6028L21.1185 56.7642H19.25ZM72.7678 56.9617V59.3011H71.6892V60.1974C71.6892 60.1974 72.7678 60.1974 72.7678 60.1974C72.7678 60.1974 72.7678 65.2102 72.7678 65.5142C72.7678 65.9578 72.9697 66.217 73.2083 66.3801C73.4651 66.5522 73.8402 66.6384 74.3477 66.6384C74.6687 66.6384 75.1072 66.532 75.1072 66.532C75.1072 66.532 75.1072 65.7269 75.1072 65.7269C74.9824 65.7348 74.8518 65.7421 74.7274 65.7421C73.9719 65.7421 73.8919 65.4473 73.8919 65.1193C73.8919 65.1193 73.8919 60.1974 73.8919 60.1974H75.1072V59.3011H73.8919V56.9617H72.7678ZM32.3294 59.1644C31.3828 59.1644 30.5806 59.5458 30.0204 60.2582C29.5005 60.923 29.2153 61.8621 29.2153 62.9014C29.2153 63.9416 29.5005 64.8791 30.0204 65.5446C30.5806 66.2589 31.3828 66.6384 32.3294 66.6384C33.2799 66.6384 34.0797 66.2589 34.6385 65.5446C35.1584 64.8791 35.4436 63.9416 35.4436 62.9014C35.4436 61.8621 35.1584 60.923 34.6385 60.2582C34.0797 59.5458 33.2799 59.1644 32.3294 59.1644ZM97.1797 59.1796C96.6992 59.1796 96.2524 59.2679 95.8733 59.4379C95.5022 59.6051 95.1725 59.8569 94.9162 60.1822C94.4064 60.8206 94.1111 61.7684 94.1111 62.9166C94.1111 64.1945 94.4783 65.1696 95.1441 65.8181C95.8464 66.5036 96.7413 66.6384 97.362 66.6384C98.9749 66.6384 99.7662 65.7657 100.096 64.9674C100.096 64.9674 99.2001 64.5268 99.2001 64.5268C98.9821 65.0129 98.4814 65.7573 97.362 65.7573C96.7221 65.7573 96.1988 65.4953 95.8277 65.0129C95.4691 64.5461 95.2676 63.9 95.2656 63.1293C95.2656 63.1293 100.188 63.1293 100.188 63.1293C100.188 63.1293 100.188 62.4457 100.188 62.4457C100.188 61.2648 99.873 60.3843 99.2912 59.848C98.7959 59.3925 98.1009 59.1796 97.1797 59.1796ZM43.8442 59.1948C42.5759 59.1948 40.7756 60.0482 40.7756 62.9166C40.7756 65.7017 42.5703 66.6384 43.7834 66.6384C44.4914 66.6384 45.1348 66.2461 45.576 65.6813C45.576 65.6813 45.6367 65.651 45.6367 65.651C45.6367 65.651 45.6367 67.0181 45.6367 67.0181C45.6367 67.977 44.8068 68.5676 43.9201 68.5676C43.0581 68.5676 42.2949 68.403 41.6719 68.1119C41.6719 68.1119 41.6719 69.0841 41.6719 69.0841C42.1966 69.309 43.0504 69.4487 43.7834 69.4487C45.7789 69.4487 46.7305 68.3504 46.7305 66.7599C46.7305 66.7599 46.7305 59.3315 46.7305 59.3315H45.895L45.6519 60.0911C45.2395 59.5537 44.6996 59.1948 43.8442 59.1948ZM51.1055 59.1948C49.5089 59.1948 48.753 60.1512 48.4319 60.7443L49.3281 61.2152C49.4539 60.8763 49.9067 60.0911 51.1207 60.0911C52.0779 60.0911 52.5638 60.5135 52.5638 61.3519V61.6102C52.5638 61.6102 52.5716 61.6887 52.5486 61.7165C52.5131 61.7614 52.4123 61.7981 52.1688 61.8228C50.8286 61.9724 49.9378 62.1925 49.2826 62.6128C48.5712 63.07 48.128 63.7101 48.128 64.5876C48.128 65.2109 48.4299 65.7429 48.8268 66.1219C49.196 66.4709 49.6989 66.6525 50.2548 66.6688C51.438 66.7067 52.2169 66.2142 52.5942 65.6358C52.6235 66.0332 52.7659 66.2603 53.0803 66.4257C53.3756 66.5834 53.8598 66.552 54.0677 66.5017C54.0677 66.5017 54.0677 65.7421 54.0677 65.7421C53.8171 65.7296 53.6576 65.6104 53.6576 65.3016C53.6575 65.3016 53.6576 61.8228 53.6576 61.8228C53.6575 61.8228 53.6576 61.3671 53.6576 61.3671C53.6575 60.6492 53.3758 60.0603 52.8372 59.6809C52.3932 59.3658 51.7727 59.1948 51.1055 59.1948ZM58.8377 59.1948C58.1061 59.1948 57.3573 59.5738 56.7261 60.2885V59.3315H55.602V66.532H56.7261C56.7261 66.532 56.7261 61.1848 56.7261 61.1848C57.1087 60.7761 57.966 60.0911 58.7465 60.0911C59.529 60.0911 59.8707 60.4749 59.8707 61.3367C59.8707 61.3367 59.8707 66.532 59.8707 66.532H60.9948V61.3063C60.9948 59.7506 59.8884 59.1948 58.8377 59.1948ZM79.1784 59.1948C77.5827 59.1948 76.8269 60.1512 76.5048 60.7443C76.5048 60.7443 77.4011 61.2152 77.4011 61.2152C77.5273 60.8763 77.9796 60.0911 79.1936 60.0911C80.1507 60.0911 80.6367 60.5135 80.6367 61.3519C80.6367 61.3519 80.6367 61.6102 80.6367 61.6102C80.6367 61.6102 80.6289 61.6887 80.6063 61.7165C80.5713 61.7614 80.4861 61.7981 80.2418 61.8228C78.9015 61.9721 78.0107 62.1925 77.3555 62.6128C76.6445 63.07 76.201 63.7101 76.201 64.5876C76.201 65.2109 76.5022 65.7427 76.8997 66.1219C77.2689 66.4709 77.7723 66.6525 78.3277 66.6688C79.51 66.7067 80.2898 66.2142 80.6671 65.6358C80.6969 66.0331 80.8383 66.2603 81.1532 66.4257C81.4479 66.5834 81.9323 66.552 82.1406 66.5017C82.1406 66.5017 82.1406 65.7421 82.1406 65.7421C81.8905 65.7296 81.7305 65.6104 81.7305 65.3016C81.7305 65.3016 81.7305 61.8228 81.7305 61.8228C81.7305 61.8228 81.7305 61.3671 81.7305 61.3671C81.7305 60.6492 81.4341 60.0603 80.895 59.6809C80.4505 59.3658 79.8452 59.1948 79.1784 59.1948ZM86.9106 59.1948C86.1771 59.1948 85.4302 59.5738 84.799 60.2885V59.3315H83.6749V66.532H84.799C84.799 66.532 84.799 61.1848 84.799 61.1848C85.1821 60.7758 86.038 60.0911 86.8195 60.0911C87.6004 60.0911 87.9436 60.4749 87.9436 61.3367V66.532H89.0677V61.3063C89.0677 59.7506 87.9613 59.1948 86.9106 59.1948ZM40.3503 59.2252C39.2097 59.2252 38.5338 59.6674 37.9501 60.7139V60.6379V59.3315H36.826V66.5168H37.9501C37.9501 66.5169 37.9501 62.4457 37.9501 62.4457C38.2276 60.9667 39.0106 60.2734 40.3503 60.2734V59.2252ZM100.947 59.3163L103.454 66.4561V66.5168C103.304 67.2011 102.871 68.0458 102.481 68.3094C102.138 68.5427 101.765 68.5676 101.479 68.5676C101.34 68.5676 101.055 68.5209 100.932 68.4917C100.932 68.4917 100.932 69.3576 100.932 69.3576C101.087 69.3957 101.446 69.4639 101.676 69.4639C102.212 69.4639 102.664 69.3298 103.043 69.0537C103.498 68.7233 104.002 67.862 104.243 67.1245C104.243 67.1245 106.75 59.3163 106.75 59.3163H105.656L104.016 64.8458L104 64.9674L103.97 64.8458L102.041 59.3163H100.947ZM32.3294 60.0607C33.5396 60.0607 34.2587 61.1229 34.2587 62.9014C34.2587 64.6804 33.5396 65.7421 32.3294 65.7421C31.1212 65.7421 30.4002 64.6804 30.4002 62.9014C30.4002 61.1229 31.1212 60.0607 32.3294 60.0607ZM43.9201 60.0759C44.5543 60.0759 45.1111 60.3499 45.6367 61.0025C45.6367 61.0025 45.6367 64.4357 45.6367 64.4357C45.3458 65.2638 44.5125 65.7421 43.9201 65.7421C42.7609 65.7421 41.9605 65.0203 41.9605 62.8558C41.9605 61.0358 42.6788 60.0759 43.9201 60.0759ZM97.2101 60.0759C98.498 60.0759 99.0738 60.7569 99.0786 62.233C99.0786 62.233 95.296 62.233 95.296 62.233C95.394 60.7581 96.0119 60.0759 97.2101 60.0759ZM52.5942 62.6128C52.5942 62.6128 52.5942 64.4357 52.5942 64.4357C52.5424 65.065 51.3663 65.8267 50.4067 65.7725C49.8773 65.7435 49.3671 65.3171 49.3129 64.618C49.2251 63.4496 50.103 62.9645 52.0625 62.7495C52.1988 62.737 52.4626 62.6886 52.5942 62.6128ZM80.6671 62.6128C80.6671 62.6128 80.6671 64.4357 80.6671 64.4357C80.6153 65.0648 79.4392 65.8267 78.4796 65.7725C77.9511 65.7432 77.4386 65.3169 77.3859 64.618C77.2966 63.4496 78.1755 62.9645 80.1354 62.7495C80.2708 62.737 80.5365 62.6886 80.6671 62.6128Z" fill="black"/>
</svg>
