<svg width="100" height="25" viewBox="0 0 100 25" fill="none" xmlns="http://www.w3.org/2000/svg">
<path d="M78.0425 6.03638V15.0142C78.0425 15.4578 78.2744 15.717 78.5135 15.8801C78.7698 16.0522 79.1459 16.1384 79.6528 16.1384C79.9734 16.1384 80.3971 16.032 80.3971 16.032C80.3971 16.032 80.3971 15.2269 80.3971 15.2269C80.27 15.2348 80.1574 15.2421 80.0326 15.2421C79.278 15.2421 79.1667 14.9473 79.1667 14.6193C79.1667 14.6193 79.1667 6.03638 79.1667 6.03638L78.0425 6.03638ZM54.299 6.12752C53.4518 6.12752 52.6858 6.39329 52.1419 6.87188C51.6138 7.33871 51.3216 7.98309 51.3216 8.67961C51.3216 9.44672 51.6321 10.0461 52.2786 10.5177C52.8489 10.9341 53.6032 11.203 54.3294 11.4596C55.5919 11.9086 56.7752 12.3185 56.7752 13.4648C56.7752 13.9746 56.6018 14.4116 56.2739 14.7104C55.9134 15.039 55.3947 15.1965 54.7092 15.1965C53.5077 15.1965 52.633 14.5313 52.1419 13.2369C52.1419 13.2369 51.0634 13.5255 51.0634 13.5255C51.2957 14.0505 51.6908 14.808 52.2635 15.3181C52.8913 15.8814 53.6707 16.1536 54.6484 16.1536C55.8063 16.1536 56.6852 15.8549 57.2613 15.2573C57.8585 14.6352 57.9905 13.839 57.9905 13.2825C57.9905 12.4849 57.6533 11.8691 56.9727 11.3836C56.3784 10.9573 55.6094 10.6826 54.8611 10.4266C53.6418 10.0096 52.4784 9.61284 52.4913 8.58846C52.4956 8.1108 52.6613 7.73897 52.9622 7.47952C53.269 7.21595 53.7061 7.08455 54.2687 7.08455C54.8595 7.08456 55.3864 7.24971 55.7878 7.57067C56.1568 7.86298 56.4254 8.29679 56.5473 8.78594C56.5473 8.78594 57.5955 8.64922 57.5955 8.64922C57.1356 7.08149 56.0117 6.12752 54.299 6.12752ZM6.25 6.26424V16.0168H7.37413V7.09974L7.40451 7.13013L10.0781 16.0168H10.944L13.6328 7.13013L13.648 7.09974V16.0168H14.7721V6.26424H12.9036L10.5187 14.1028V14.1332L10.5035 14.1028L8.11849 6.26424H6.25ZM59.7678 6.46172V8.80113H58.6892V9.6974C58.6892 9.6974 59.7678 9.69741 59.7678 9.6974C59.7678 9.6974 59.7678 14.7102 59.7678 15.0142C59.7678 15.4578 59.9697 15.717 60.2083 15.8801C60.4651 16.0522 60.8402 16.1384 61.3477 16.1384C61.6687 16.1384 62.1072 16.032 62.1072 16.032C62.1072 16.032 62.1072 15.2269 62.1072 15.2269C61.9824 15.2348 61.8518 15.2421 61.7274 15.2421C60.9719 15.2421 60.8919 14.9473 60.8919 14.6193C60.8919 14.6193 60.8919 9.69741 60.8919 9.6974H62.1072V8.80114H60.8919V6.46172H59.7678ZM19.3294 8.66441C18.3828 8.66441 17.5806 9.04581 17.0204 9.75817C16.5005 10.423 16.2153 11.3621 16.2153 12.4014C16.2153 13.4416 16.5005 14.3791 17.0204 15.0446C17.5806 15.7589 18.3828 16.1384 19.3294 16.1384C20.2799 16.1384 21.0797 15.7589 21.6385 15.0446C22.1584 14.3791 22.4436 13.4416 22.4436 12.4014C22.4436 11.3621 22.1584 10.423 21.6385 9.75817C21.0797 9.04581 20.2799 8.66441 19.3294 8.66441ZM84.1797 8.67961C83.6992 8.67961 83.2524 8.76792 82.8733 8.93785C82.5022 9.10511 82.1725 9.35693 81.9162 9.68221C81.4064 10.3206 81.1111 11.2684 81.1111 12.4166C81.1111 13.6945 81.4783 14.6696 82.1441 15.3181C82.8464 16.0036 83.7413 16.1384 84.362 16.1384C85.9749 16.1384 86.7662 15.2657 87.0964 14.4674C87.0963 14.4674 86.2001 14.0268 86.2001 14.0268C85.9821 14.5129 85.4814 15.2573 84.362 15.2573C83.7221 15.2573 83.1988 14.9953 82.8277 14.5129C82.4691 14.0461 82.2676 13.4 82.2656 12.6293C82.2656 12.6293 87.1875 12.6293 87.1875 12.6293C87.1875 12.6293 87.1875 11.9457 87.1875 11.9457C87.1875 10.7648 86.873 9.88426 86.2912 9.34801C85.7959 8.89249 85.1009 8.67961 84.1797 8.67961ZM30.8442 8.6948C29.5759 8.6948 27.7756 9.54816 27.7756 12.4166C27.7756 15.2017 29.5703 16.1384 30.7834 16.1384C31.4914 16.1384 32.1348 15.7461 32.576 15.1813C32.576 15.1813 32.6367 15.151 32.6367 15.151C32.6367 15.151 32.6367 16.5181 32.6367 16.5181C32.6367 17.477 31.8068 18.0676 30.9201 18.0676C30.0581 18.0676 29.2949 17.903 28.6719 17.6119C28.6719 17.6119 28.6719 18.5841 28.6719 18.5841C29.1966 18.809 30.0504 18.9487 30.7834 18.9487C32.7789 18.9487 33.7305 17.8504 33.7305 16.2599C33.7305 16.2599 33.7305 8.83152 33.7305 8.83152H32.895L32.6519 9.59107C32.2395 9.0537 31.6996 8.6948 30.8442 8.6948ZM38.1055 8.6948C36.5089 8.6948 35.753 9.65118 35.4319 10.2443L36.3281 10.7152C36.4539 10.3763 36.9067 9.59107 38.1207 9.59107C39.0779 9.59107 39.5638 10.0135 39.5638 10.8519V11.1102C39.5638 11.1102 39.5716 11.1887 39.5486 11.2165C39.5131 11.2614 39.4123 11.2981 39.1688 11.3228C37.8286 11.4724 36.9378 11.6925 36.2826 12.1128C35.5712 12.57 35.128 13.2101 35.128 14.0876C35.128 14.7109 35.4299 15.2429 35.8268 15.6219C36.196 15.9709 36.6989 16.1525 37.2548 16.1688C38.438 16.2067 39.2169 15.7142 39.5942 15.1358C39.6235 15.5332 39.7659 15.7603 40.0803 15.9257C40.3756 16.0834 40.8598 16.052 41.0677 16.0017C41.0677 16.0017 41.0677 15.2421 41.0677 15.2421C40.8171 15.2296 40.6576 15.1104 40.6576 14.8016C40.6575 14.8016 40.6576 11.3228 40.6576 11.3228C40.6575 11.3228 40.6576 10.8671 40.6576 10.8671C40.6575 10.1492 40.3758 9.56034 39.8372 9.18091C39.3932 8.8658 38.7727 8.6948 38.1055 8.6948ZM45.8377 8.6948C45.1061 8.6948 44.3573 9.07379 43.7261 9.78855V8.83152H42.602V16.032H43.7261C43.7261 16.032 43.7261 10.6848 43.7261 10.6848C44.1087 10.2761 44.966 9.59107 45.7465 9.59107C46.529 9.59107 46.8707 9.97487 46.8707 10.8367C46.8707 10.8367 46.8707 16.032 46.8707 16.032H47.9948V10.8063C47.9948 9.25061 46.8884 8.6948 45.8377 8.6948ZM66.1784 8.6948C64.5827 8.6948 63.8269 9.65118 63.5048 10.2443C63.5048 10.2443 64.4011 10.7152 64.4011 10.7152C64.5273 10.3763 64.9796 9.59107 66.1936 9.59107C67.1507 9.59107 67.6367 10.0135 67.6367 10.8519C67.6367 10.8519 67.6367 11.1102 67.6367 11.1102C67.6367 11.1102 67.6289 11.1887 67.6063 11.2165C67.5713 11.2614 67.4861 11.2981 67.2418 11.3228C65.9015 11.4721 65.0107 11.6925 64.3555 12.1128C63.6445 12.57 63.201 13.2101 63.201 14.0876C63.201 14.7109 63.5022 15.2427 63.8997 15.6219C64.2689 15.9709 64.7723 16.1525 65.3277 16.1688C66.51 16.2067 67.2898 15.7142 67.6671 15.1358C67.6969 15.5331 67.8383 15.7603 68.1532 15.9257C68.4479 16.0834 68.9323 16.052 69.1406 16.0017C69.1406 16.0017 69.1406 15.2421 69.1406 15.2421C68.8905 15.2296 68.7305 15.1104 68.7305 14.8016C68.7305 14.8016 68.7305 11.3228 68.7305 11.3228C68.7305 11.3228 68.7305 10.8671 68.7305 10.8671C68.7305 10.1492 68.4341 9.56034 67.895 9.18091C67.4505 8.8658 66.8452 8.6948 66.1784 8.6948ZM73.9106 8.6948C73.1771 8.6948 72.4302 9.07379 71.799 9.78855V8.83152H70.6749V16.032H71.799C71.799 16.032 71.799 10.6848 71.799 10.6848C72.1821 10.2758 73.038 9.59107 73.8195 9.59107C74.6004 9.59107 74.9436 9.97487 74.9436 10.8367V16.032H76.0677V10.8063C76.0677 9.25061 74.9613 8.6948 73.9106 8.6948ZM27.3503 8.72518C26.2097 8.72518 25.5338 9.16737 24.9501 10.2139V10.1379V8.83152H23.826V16.0168H24.9501C24.9501 16.0169 24.9501 11.9457 24.9501 11.9457C25.2276 10.4667 26.0106 9.77336 27.3503 9.77336V8.72518ZM87.9471 8.81632L90.4536 15.9561V16.0168C90.3038 16.7011 89.8706 17.5458 89.4813 17.8094C89.1376 18.0427 88.7653 18.0676 88.4787 18.0676C88.3404 18.0676 88.0547 18.0209 87.9319 17.9917C87.9319 17.9917 87.9319 18.8576 87.9319 18.8576C88.0874 18.8957 88.4463 18.9639 88.6762 18.9639C89.2119 18.9639 89.6637 18.8298 90.0434 18.5537C90.498 18.2233 91.0016 17.362 91.2435 16.6245C91.2435 16.6245 93.75 8.81632 93.75 8.81632H92.6563L91.0156 14.3458L91.0004 14.4674L90.9701 14.3458L89.0408 8.81632H87.9471ZM19.3294 9.56068C20.5396 9.56068 21.2587 10.6229 21.2587 12.4014C21.2587 14.1804 20.5396 15.2421 19.3294 15.2421C18.1212 15.2421 17.4002 14.1804 17.4002 12.4014C17.4002 10.6229 18.1212 9.56068 19.3294 9.56068ZM30.9201 9.57587C31.5543 9.57587 32.1111 9.84991 32.6367 10.5025C32.6367 10.5025 32.6367 13.9357 32.6367 13.9357C32.3458 14.7638 31.5125 15.2421 30.9201 15.2421C29.7609 15.2421 28.9605 14.5203 28.9605 12.3558C28.9605 10.5358 29.6788 9.57587 30.9201 9.57587ZM84.2101 9.57587C85.498 9.57587 86.0738 10.2569 86.0786 11.733C86.0786 11.733 82.296 11.733 82.296 11.733C82.394 10.2581 83.0119 9.57587 84.2101 9.57587ZM39.5942 12.1128C39.5942 12.1128 39.5942 13.9357 39.5942 13.9357C39.5424 14.565 38.3663 15.3267 37.4067 15.2725C36.8773 15.2435 36.3671 14.8171 36.3129 14.118C36.2251 12.9496 37.103 12.4645 39.0625 12.2495C39.1988 12.237 39.4626 12.1886 39.5942 12.1128ZM67.6671 12.1128C67.6671 12.1128 67.6671 13.9357 67.6671 13.9357C67.6153 14.5648 66.4392 15.3267 65.4796 15.2725C64.9511 15.2432 64.4386 14.8169 64.3859 14.118C64.2966 12.9496 65.1755 12.4645 67.1354 12.2495C67.2708 12.237 67.5365 12.1886 67.6671 12.1128Z" fill="black"/>
</svg>
