<svg width="20" height="20" viewBox="0 0 20 20" fill="none" xmlns="http://www.w3.org/2000/svg">
<path d="M3.33398 18.3337V3.33366C3.33398 3.20429 3.36411 3.07669 3.42196 2.96098C3.47982 2.84527 3.56382 2.74461 3.66732 2.66699C4.5328 2.01788 5.58547 1.66699 6.66732 1.66699C9.16732 1.66699 10.834 3.33366 12.7782 3.33366C13.8893 3.33366 14.7412 3.11144 15.334 2.66699C15.4578 2.57414 15.605 2.51759 15.7591 2.50369C15.9133 2.48979 16.0682 2.51909 16.2067 2.5883C16.3451 2.65751 16.4615 2.7639 16.5429 2.89555C16.6242 3.0272 16.6673 3.1789 16.6673 3.33366V11.667C16.6673 11.7964 16.6372 11.924 16.5793 12.0397C16.5215 12.1554 16.4375 12.256 16.334 12.3337C15.4685 12.9828 14.4158 13.3337 13.334 13.3337C10.834 13.3337 9.16732 11.667 6.66732 11.667C5.43742 11.667 4.25067 12.1204 3.33398 12.9403" stroke="#64748B" stroke-width="1.66667" stroke-linecap="round" stroke-linejoin="round"/>
</svg>
