<svg width="90" height="63" viewBox="0 0 90 63" fill="none" xmlns="http://www.w3.org/2000/svg">
<g clip-path="url(#clip0_23040_3364)">
<mask id="mask0_23040_3364" style="mask-type:luminance" maskUnits="userSpaceOnUse" x="0" y="0" width="89" height="63">
<path d="M0.0195312 0.16333H88.9782V62.3036H0.0195312V0.16333Z" fill="white"/>
</mask>
<g mask="url(#mask0_23040_3364)">
<path fill-rule="evenodd" clip-rule="evenodd" d="M36.9568 6.96638C39.8284 3.97711 43.825 2.12598 48.2402 2.12598C54.1272 2.12598 59.2292 5.39652 61.9765 10.2696C64.4151 9.17947 67.0564 8.61665 69.7276 8.618C80.3242 8.618 88.9257 17.2849 88.9257 27.9796C88.9257 38.6743 80.3242 47.3412 69.7276 47.3412C68.4325 47.3412 67.1701 47.211 65.9338 46.9651C63.53 51.2495 58.9349 54.1603 53.702 54.1603C51.5715 54.1645 49.4683 53.6812 47.5534 52.7474C45.1168 58.4708 39.4425 62.4936 32.836 62.4936C25.9351 62.4936 20.0809 58.1438 17.8242 52.0279C16.8198 52.2398 15.796 52.3464 14.7695 52.3458C6.56046 52.3458 -0.0787354 45.6084 -0.0787354 37.334C-0.0787354 31.7741 2.91054 26.9337 7.34539 24.3172C6.40453 22.1499 5.92024 19.8119 5.9227 17.4491C5.9227 7.89914 13.6739 0.180664 23.2239 0.180664C28.8165 0.180664 33.8204 2.84615 36.9601 6.98338" fill="#00A1E0"/>
</g>
<path fill-rule="evenodd" clip-rule="evenodd" d="M12.8857 32.4766C12.8298 32.6224 12.9057 32.6528 12.9236 32.6787C13.0908 32.7997 13.2605 32.8873 13.4306 32.9858C14.3398 33.4665 15.1967 33.6072 16.0928 33.6072C17.9178 33.6072 19.0526 32.6358 19.0526 31.0725V31.0418C19.0526 29.5962 17.7706 29.0696 16.5736 28.6935L16.4169 28.6428C15.511 28.3491 14.7293 28.0934 14.7293 27.4981V27.4677C14.7293 26.9575 15.1872 26.5814 15.8936 26.5814C16.6785 26.5814 17.6139 26.8427 18.2124 27.1734C18.2124 27.1734 18.3897 27.2878 18.4541 27.1168C18.4891 27.0242 18.7943 26.2076 18.827 26.116C18.8616 26.0202 18.8008 25.9479 18.7383 25.9106C18.0515 25.492 17.1031 25.2074 16.1219 25.2074L15.9397 25.2081C14.2685 25.2081 13.1009 26.2187 13.1009 27.6643V27.6953C13.1009 29.2194 14.3895 29.7165 15.5931 30.0599L15.7867 30.1201C16.6632 30.3896 17.4219 30.6238 17.4219 31.2387V31.2694C17.4219 31.8352 16.9281 32.2571 16.1366 32.2571C15.8289 32.2571 14.848 32.2519 13.7851 31.5801C13.6566 31.5052 13.5833 31.4512 13.4842 31.3907C13.4319 31.359 13.3011 31.3018 13.2442 31.4731L12.8844 32.4739M39.6047 32.4739C39.5488 32.6198 39.6246 32.6502 39.6433 32.6761C39.8098 32.7971 39.9802 32.8847 40.1502 32.9832C41.0594 33.4639 41.9163 33.6046 42.8124 33.6046C44.6374 33.6046 45.7723 32.6332 45.7723 31.0699V31.0391C45.7723 29.5936 44.4935 29.067 43.2932 28.6909L43.1366 28.6402C42.2306 28.3465 41.449 28.0908 41.449 27.4955V27.4651C41.449 26.9549 41.9068 26.5788 42.6133 26.5788C43.3982 26.5788 44.3303 26.8401 44.9321 27.1708C44.9321 27.1708 45.1093 27.2852 45.1741 27.1142C45.2088 27.0216 45.5142 26.205 45.5437 26.1134C45.5787 26.0176 45.5175 25.9453 45.4554 25.908C44.7686 25.4894 43.8201 25.2048 42.8389 25.2048L42.6564 25.2055C40.9852 25.2055 39.8176 26.2161 39.8176 27.6617V27.6927C39.8176 29.2168 41.1062 29.7139 42.3098 30.0573L42.503 30.1175C43.3828 30.387 44.1383 30.6212 44.1383 31.236V31.2668C44.1383 31.8326 43.6445 32.2545 42.853 32.2545C42.5446 32.2545 41.5611 32.2492 40.5015 31.5775C40.3729 31.5026 40.2977 31.4509 40.2003 31.3881C40.1672 31.3672 40.0132 31.307 39.9605 31.4705L39.6008 32.4713M57.8504 29.4101C57.8504 30.2931 57.6855 30.9898 57.3631 31.4836C57.0412 31.9709 56.5552 32.2097 55.8782 32.2097C55.2012 32.2097 54.7172 31.9729 54.4 31.4869C54.0804 30.9963 53.9192 30.2964 53.9192 29.4134C53.9192 28.5303 54.0814 27.837 54.4 27.3497C54.7165 26.8656 55.198 26.6334 55.8782 26.6334C56.5585 26.6334 57.0426 26.8679 57.3631 27.3497C57.6875 27.837 57.8504 28.5303 57.8504 29.4134M59.3745 27.7748C59.2243 27.2679 58.9918 26.8231 58.6811 26.4503C58.3701 26.0774 57.9779 25.7765 57.5102 25.5607C57.0458 25.3432 56.4964 25.2336 55.875 25.2336C55.2536 25.2336 54.7074 25.3438 54.2397 25.5607C53.7753 25.7778 53.3796 26.0774 53.0689 26.4503C52.7588 26.8231 52.5259 27.2679 52.3755 27.7748C52.2267 28.2785 52.1511 28.8279 52.1511 29.4134C52.1511 29.9988 52.2267 30.5482 52.3755 31.0519C52.525 31.5588 52.7582 32.0036 53.0689 32.3765C53.3799 32.7493 53.7753 33.0469 54.2397 33.2595C54.7074 33.4714 55.2568 33.5794 55.875 33.5794C56.4931 33.5794 57.0426 33.4714 57.507 33.2595C57.9714 33.0476 58.3671 32.7493 58.6778 32.3765C58.9882 32.0036 59.2207 31.5588 59.3712 31.0519C59.5197 30.5482 59.5952 29.9988 59.5952 29.4134C59.5952 28.8312 59.5197 28.2785 59.3712 27.7748M71.8973 31.9611C71.8473 31.813 71.7027 31.8689 71.7027 31.8689C71.4813 31.9536 71.2449 32.0321 70.993 32.0713C70.7392 32.1112 70.4567 32.1312 70.1591 32.1312C69.4232 32.1312 68.8345 31.9117 68.4159 31.4771C67.994 31.0421 67.7585 30.3422 67.7617 29.3937C67.764 28.5303 67.9727 27.8828 68.3472 27.3856C68.7167 26.895 69.2858 26.6399 70.038 26.6399C70.666 26.6399 71.1468 26.7129 71.6504 26.8705C71.6504 26.8705 71.7698 26.9225 71.827 26.7652C71.9608 26.3956 72.0596 26.1307 72.2031 25.7252C72.2437 25.6091 72.1443 25.56 72.108 25.546C71.9104 25.4688 71.444 25.3422 71.0908 25.2889C70.7605 25.2385 70.3779 25.2124 69.9461 25.2124C69.3051 25.2124 68.736 25.3219 68.2487 25.5391C67.7614 25.7559 67.3493 26.0558 67.0223 26.4287C66.6952 26.8015 66.4467 27.2463 66.2799 27.7532C66.1147 28.2569 66.0313 28.8096 66.0313 29.395C66.0313 30.6575 66.3714 31.6812 67.0452 32.4301C67.7189 33.1823 68.7328 33.5617 70.0541 33.5617C70.8357 33.5617 71.637 33.4037 72.2126 33.1758C72.2126 33.1758 72.3225 33.1228 72.2748 32.9946L71.8987 31.9611M74.5641 28.5598C74.6371 28.0692 74.7715 27.6604 74.9828 27.3431C75.299 26.8591 75.7808 26.5942 76.4578 26.5942C77.1348 26.5942 77.5828 26.8604 77.9034 27.3431C78.1159 27.662 78.2088 28.0855 78.2435 28.5598L74.5478 28.5591L74.5641 28.5598ZM79.6989 27.4805C79.569 26.9932 79.2476 26.4993 79.0382 26.2736C78.7046 25.9172 78.3809 25.6653 78.0571 25.528C77.5896 25.3292 77.0868 25.2272 76.5788 25.2281C75.9345 25.2281 75.3491 25.337 74.8748 25.5584C74.4006 25.7814 74.0016 26.0849 73.6876 26.4643C73.374 26.8437 73.1382 27.2918 72.9877 27.8052C72.8373 28.3122 72.7614 28.8682 72.7614 29.4503C72.7614 30.0456 72.8402 30.5983 72.9953 31.0987C73.1519 31.6023 73.4041 32.0439 73.7442 32.4102C74.0844 32.7797 74.5193 33.0675 75.0426 33.2703C75.5626 33.4714 76.1939 33.5758 76.9166 33.5735C78.408 33.5686 79.1929 33.2366 79.5135 33.0567C79.5707 33.0247 79.6246 32.9694 79.5573 32.8101L79.2204 31.865C79.1687 31.724 79.0261 31.775 79.0261 31.775C78.6566 31.913 78.1333 32.1609 76.9068 32.1577C76.1055 32.1564 75.5136 31.9199 75.1407 31.5494C74.7614 31.17 74.5717 30.6172 74.5422 29.8323L79.7097 29.8362C79.7097 29.8362 79.8457 29.8349 79.8598 29.7022C79.8654 29.6472 80.0367 28.6425 79.7058 27.4815L79.6989 27.4805ZM33.2572 28.5598C33.3302 28.0692 33.4649 27.6604 33.6759 27.3431C33.9925 26.8591 34.4739 26.5942 35.1509 26.5942C35.8279 26.5942 36.2759 26.8604 36.5965 27.3431C36.8087 27.662 36.9016 28.0855 36.9366 28.5598L33.2409 28.5591L33.2572 28.5598ZM38.392 27.4805C38.2625 26.9932 37.9406 26.4993 37.7313 26.2736C37.3977 25.9172 37.074 25.6653 36.7502 25.528C36.2827 25.3292 35.7798 25.2272 35.2719 25.2281C34.6276 25.2281 34.0422 25.337 33.5679 25.5584C33.0937 25.7814 32.6947 26.0849 32.3807 26.4643C32.0677 26.8437 31.8313 27.2918 31.6808 27.8052C31.5307 28.3122 31.4552 28.8682 31.4552 29.4503C31.4552 30.0456 31.5333 30.5983 31.6893 31.0987C31.8457 31.6023 32.0982 32.0439 32.435 32.4102C32.7752 32.7797 33.2101 33.0675 33.7334 33.2703C34.2534 33.4714 34.8814 33.5758 35.6074 33.5735C37.0988 33.5686 37.8837 33.2366 38.2043 33.0567C38.2612 33.0247 38.3155 32.9694 38.2478 32.8101L37.9109 31.865C37.8589 31.724 37.7163 31.775 37.7163 31.775C37.3467 31.913 36.8234 32.1609 35.597 32.1577C34.799 32.1564 34.2037 31.9199 33.8309 31.5494C33.4515 31.17 33.2618 30.6172 33.2324 29.8323L38.3998 29.8362C38.3998 29.8362 38.5359 29.8349 38.5499 29.7022C38.5555 29.6472 38.7269 28.6425 38.3956 27.4815L38.392 27.4805ZM22.1047 31.9284C21.9023 31.7668 21.8741 31.7273 21.8071 31.6223C21.7047 31.4643 21.6524 31.2396 21.6524 30.9518C21.6524 30.5005 21.8028 30.1734 22.1135 29.9543C22.1103 29.955 22.5583 29.5684 23.6114 29.5815C24.0802 29.5899 24.5478 29.6297 25.0112 29.7008V32.0458H25.0119C25.0119 32.0458 24.3578 32.1868 23.6186 32.2313C22.5688 32.2944 22.1044 31.9291 22.1076 31.93L22.1047 31.9284ZM24.1586 28.2981C23.9493 28.2827 23.6778 28.2752 23.354 28.2752C22.9125 28.2752 22.4841 28.3302 22.0851 28.4381C21.6828 28.5467 21.3198 28.7148 21.0091 28.9385C20.6975 29.1607 20.4413 29.4517 20.2601 29.7888C20.0773 30.129 19.9841 30.528 19.9841 30.9793C19.9841 31.4372 20.0636 31.8329 20.2205 32.1567C20.3744 32.4778 20.606 32.7555 20.8943 32.9645C21.1811 33.1732 21.5353 33.3275 21.9441 33.4191C22.3497 33.5117 22.8075 33.5584 23.3112 33.5584C23.841 33.5584 24.3676 33.514 24.8778 33.4279C25.3123 33.353 25.7452 33.2688 26.1762 33.1755C26.3482 33.1359 26.5392 33.0839 26.5392 33.0839C26.6668 33.0515 26.657 32.9151 26.657 32.9151L26.654 28.2056C26.654 27.1721 26.378 26.4035 25.8331 25.9293C25.2902 25.455 24.4955 25.2163 23.4652 25.2163C23.0793 25.2163 22.4546 25.2686 22.0818 25.3435C22.0818 25.3435 20.9567 25.562 20.4923 25.9257C20.4923 25.9257 20.3903 25.9885 20.4459 26.1307L20.8122 27.1119C20.8576 27.2391 20.9816 27.1956 20.9816 27.1956C20.9816 27.1956 21.0205 27.1802 21.0663 27.1531C22.0573 26.6135 23.3132 26.6298 23.3132 26.6298C23.8692 26.6298 24.3009 26.7426 24.5887 26.9634C24.8703 27.1796 25.0138 27.5063 25.0138 28.1931V28.4113C24.5723 28.3472 24.1635 28.3102 24.1635 28.3102L24.1586 28.2981ZM65.6944 25.6392C65.7019 25.6219 65.7058 25.6033 65.7059 25.5846C65.706 25.5658 65.7023 25.5472 65.6951 25.5298C65.6879 25.5125 65.6772 25.4968 65.6638 25.4837C65.6504 25.4705 65.6344 25.4602 65.6169 25.4534C65.5289 25.42 65.0904 25.3275 64.7535 25.3065C64.1059 25.266 63.7462 25.3752 63.4224 25.5204C63.1025 25.6647 62.7487 25.8966 62.5524 26.1647L62.5518 25.5368C62.5518 25.4505 62.4906 25.3808 62.4036 25.3808H61.0823C60.9966 25.3808 60.9345 25.4505 60.9345 25.5368V33.2226C60.9346 33.2641 60.9511 33.3039 60.9805 33.3332C61.0098 33.3626 61.0496 33.3791 61.0912 33.3792H62.4452C62.4867 33.3791 62.5264 33.3626 62.5557 33.3332C62.585 33.3038 62.6015 33.2641 62.6015 33.2226V29.3633C62.6015 28.8466 62.6584 28.3331 62.7719 28.0093C62.8837 27.6891 63.0358 27.4337 63.2232 27.2506C63.402 27.0737 63.6208 26.9424 63.861 26.8679C64.0864 26.8032 64.3198 26.7704 64.5543 26.7704C64.8242 26.7704 65.1201 26.8398 65.1201 26.8398C65.2196 26.8509 65.2748 26.7901 65.3085 26.7005C65.3972 26.4646 65.6487 25.7585 65.6977 25.6179" fill="white"/>
<path fill-rule="evenodd" clip-rule="evenodd" d="M53.0483 22.0918C52.8809 22.0412 52.7107 22.0008 52.5384 21.9708C52.3067 21.9321 52.0721 21.9139 51.8372 21.9165C50.9041 21.9165 50.1686 22.1801 49.6522 22.7008C49.1393 23.2175 48.7904 24.0047 48.6154 25.0405L48.5523 25.3901H47.3811C47.3811 25.3901 47.2382 25.3842 47.2081 25.5403L47.0158 26.613C47.0024 26.7157 47.0465 26.7798 47.1839 26.7791H48.324L47.1672 33.2362C47.0766 33.7562 46.9729 34.184 46.8581 34.5081C46.745 34.8279 46.6344 35.0677 46.4984 35.2416C46.3666 35.4101 46.2416 35.534 46.0261 35.6063C45.8482 35.6662 45.6435 35.6936 45.4191 35.6936C45.2942 35.6936 45.128 35.6727 45.0054 35.6482C44.8827 35.624 44.819 35.5965 44.7271 35.5579C44.7271 35.5579 44.5933 35.5069 44.5406 35.641C44.4978 35.7505 44.194 36.5862 44.158 36.6895C44.1214 36.7916 44.1727 36.872 44.2375 36.8952C44.3892 36.9495 44.502 36.9842 44.7087 37.0329C44.9959 37.1006 45.2379 37.1049 45.4646 37.1049C45.9395 37.1049 46.3721 37.0382 46.7309 36.9086C47.092 36.7781 47.4063 36.5508 47.6843 36.2431C47.9848 35.9111 48.1739 35.5635 48.3547 35.0892C48.5336 34.6193 48.686 34.0358 48.808 33.3559L49.9704 26.7791H51.6698C51.6698 26.7791 51.813 26.7844 51.8428 26.629L52.0351 25.5563C52.0485 25.4536 52.0047 25.3895 51.8666 25.3901H50.2173C50.2255 25.3529 50.3004 24.7727 50.4898 24.2265C50.5705 23.9933 50.7226 23.8052 50.8515 23.676C50.9718 23.553 51.12 23.4608 51.2835 23.4072C51.4628 23.3518 51.6496 23.3249 51.8372 23.3274C51.9926 23.3274 52.145 23.346 52.2611 23.3702C52.421 23.4043 52.4831 23.4223 52.525 23.4347C52.6931 23.486 52.7157 23.4363 52.7487 23.3549L53.1431 22.2717C53.1837 22.1552 53.0849 22.1062 53.0483 22.0918ZM29.9995 33.2499C29.9995 33.3362 29.938 33.4066 29.8517 33.4066H28.4836C28.3969 33.4066 28.3354 33.3362 28.3354 33.2499V22.2386C28.3354 22.1526 28.3969 22.083 28.4836 22.083H29.8517C29.938 22.083 29.9995 22.1526 29.9995 22.2386V33.2499Z" fill="white"/>
</g>
<defs>
<clipPath id="clip0_23040_3364">
<rect width="89.2857" height="62.4673" fill="white"/>
</clipPath>
</defs>
</svg>
